<svg xmlns="http://www.w3.org/2000/svg" width="180" height="180" viewBox="0 0 180 180"><rect width="180" height="180" fill="#EFE8DC"/><path d="M90 90 L90 28 A62 62 0 0 1 152 90 Z" fill="#F7F1E7"/><path d="M90 90 L152 90 A62 62 0 0 1 90 152 Z" fill="#B4AB9F"/><path d="M90 90 L90 152 A62 62 0 0 1 28 90 Z" fill="#6B6258"/><path d="M90 90 L28 90 A62 62 0 0 1 90 28 Z" fill="#443C34"/><g stroke="#211C18" stroke-width="3.5" stroke-linecap="round"><line x1="90" y1="28" x2="90" y2="152"/><line x1="28" y1="90" x2="152" y2="90"/></g><circle cx="90" cy="90" r="62" fill="none" stroke="#211C18" stroke-width="3.5"/><circle cx="90" cy="90" r="16" fill="#EFE8DC" stroke="#211C18" stroke-width="3.5"/></svg>